<svg xmlns="http://www.w3.org/2000/svg" viewBox="0 0 83.57 15.36"><defs><style>.cls-1{fill:#bea05a;}</style></defs><g id="Ebene_2" data-name="Ebene 2"><g id="Ebene_1-2" data-name="Ebene 1"><rect class="cls-1" x="13.73" y="7.05" width="3.19" height="7.92"/><polygon class="cls-1" points="0 0 0 14.97 3 14.97 3 2.13 7 14.97 9.65 14.97 12.17 7.05 9.61 7.05 8.41 10.89 5.24 0 0 0"/><path class="cls-1" d="M26.34,9.79c0,1.78,0,3.25-2,3.25-1.64,0-1.64-1.38-1.64-2.29V7.05h-3.1v4a4.83,4.83,0,0,0,.68,2.81,4,4,0,0,0,3.15,1.41,3.41,3.41,0,0,0,3.08-1.66L26.65,15h3c0-.29-.06-.48-.08-.77s0-.53-.07-2.79V7.05H26.34Z"/><path class="cls-1" d="M31.88,7.54c0,2.13,1.8,2.65,2.65,2.9l1.9.51c1.2.34,1.45.71,1.45,1.18s-.52,1.25-1.61,1.25A1.51,1.51,0,0,1,34.53,12H31.65A3,3,0,0,0,32.42,14,4.72,4.72,0,0,0,36,15.28c3.25,0,4.8-1.8,4.8-3.6,0-1.43-.89-2.4-2.79-2.92l-1.89-.52c-.91-.25-1.43-.39-1.43-1.1a.29.29,0,0,1,0-.09H31.92a2.63,2.63,0,0,0,0,.49"/><path class="cls-1" d="M49.17,8.59H45.38a3.1,3.1,0,0,1,.46-1.54h-3A7.46,7.46,0,0,0,42.34,10a5.65,5.65,0,0,0,1.35,4.08,5.17,5.17,0,0,0,3.68,1.3A5.1,5.1,0,0,0,51,14.14a3.53,3.53,0,0,0,1-2.28H49.24a1.72,1.72,0,0,1-1.83,1.45c-2.13,0-2.13-2.11-2.13-2.79h7a8.06,8.06,0,0,0-.47-3.47h-3a3.17,3.17,0,0,1,.34,1.54"/><path class="cls-1" d="M61,9.79c0,1.78,0,3.25-2,3.25-1.63,0-1.63-1.38-1.63-2.29V7.05H54.32v4A4.83,4.83,0,0,0,55,13.83a4,4,0,0,0,3.15,1.41,3.43,3.43,0,0,0,3.09-1.66l.1,1.39h3c0-.29-.06-.48-.08-.77s0-.53-.06-2.79V7.05H61Z"/><path class="cls-1" d="M67,15h3.08V8.82a2.79,2.79,0,0,1,.45-1.77H67Z"/><path class="cls-1" d="M80.48,8.82V15h3.09V9.07a10.26,10.26,0,0,0-.13-2H80.08a3,3,0,0,1,.4,1.77"/><path class="cls-1" d="M73.75,8.76V15h3.09V9.73a4.54,4.54,0,0,1,.52-2.68h-4a2.93,2.93,0,0,1,.38,1.71"/></g></g></svg>